<svg xmlns="http://www.w3.org/2000/svg" version="1.1" xmlns:xlink="http://www.w3.org/1999/xlink" xmlns:svgjs="http://svgjs.dev/svgjs" width="1000" height="750" viewBox="0 0 1000 750"><rect width="1000" height="750" fill="#ffffff"></rect><g transform="matrix(0.834,0,0,0.834,82.49455579963819,299.66578206188046)"><svg viewBox="0 0 396 72" data-background-color="#ffffff" preserveAspectRatio="xMidYMid meet" height="181" width="1000" xmlns="http://www.w3.org/2000/svg" xmlns:xlink="http://www.w3.org/1999/xlink"><g id="tight-bounds" transform="matrix(1,0,0,1,0.23999508794156554,-0.06810225933324432)"><svg viewBox="0 0 395.52 72.1362045186665" height="72.1362045186665" width="395.52"><g><svg viewBox="0 0 507.0437134212923 92.4762566020997" height="72.1362045186665" width="395.52"><g transform="matrix(1,0,0,1,111.52371342129234,26.067233314697315)"><svg viewBox="0 0 395.52 40.341789972705065" height="40.341789972705065" width="395.52"><g id="textblocktransform"><svg viewBox="0 0 395.52 40.341789972705065" height="40.341789972705065" width="395.52" id="textblock"><g><svg viewBox="0 0 395.52 40.341789972705065" height="40.341789972705065" width="395.52"><g transform="matrix(1,0,0,1,0,0)"><svg width="395.52" viewBox="3.0999999046325684 -34.900001525878906 348.0199890136719 35.5" height="40.341789972705065" data-palette-color="#ff0000"><path d="M3.1 0L3.1-34.3 9.8-34.3 15.85-11.8Q16.45-9.4 17-4.1L17-4.1 17.2-4.1Q17.7-9.5 18.3-11.8L18.3-11.8 24.4-34.3 31.05-34.3 31.05 0 26.65 0 26.65-24.9Q26.65-26.05 27-30.2L27-30.2 26.8-30.2Q26-26.05 25.65-24.9L25.65-24.9 18.8 0 14.85 0 8-24.9Q7.75-25.8 6.95-30.2L6.95-30.2 6.75-30.2Q7.05-25.85 7.05-24.9L7.05-24.9 7.05 0 3.1 0ZM34.1 0L45-34.3 50.65-34.3 61.55 0 56.8 0 54.45-7.65 40.85-7.65 38.5 0 34.1 0ZM42.05-11.65L53.2-11.65 48.55-26.9Q48.2-28 47.75-30.7L47.75-30.7 47.55-30.7Q47.1-27.95 46.75-26.9L46.75-26.9 42.05-11.65ZM65 0L65-34.3 68.8-34.3 81.55-12.75Q82.25-11.5 83.65-8.15L83.65-8.15 83.8-8.2Q83.65-11.7 83.65-12.75L83.65-12.75 83.65-34.3 87.59-34.3 87.59 0 83.95 0 71.09-21.85Q70.3-23.25 68.9-26.45L68.9-26.45 68.75-26.4Q68.95-23.2 68.95-21.85L68.95-21.85 68.95 0 65 0ZM106.34-14L106.34-17.85 119.74-17.85 119.74 0 116.84 0 115.89-3.8Q112.89 0.6 107.04 0.6L107.04 0.6Q100.49 0.6 97.02-3.85 93.54-8.3 93.54-17.15L93.54-17.15Q93.54-25.9 97.14-30.4 100.74-34.9 107.29-34.9L107.29-34.9Q112.89-34.9 116.32-31.75 119.74-28.6 119.74-22.6L119.74-22.6 115.24-22.6Q115.24-26.75 113.12-28.8 110.99-30.85 107.29-30.85L107.29-30.85Q102.94-30.85 100.54-27.7 98.14-24.55 98.14-18.4L98.14-18.4 98.14-15.9Q98.14-9.7 100.42-6.58 102.69-3.45 107.04-3.45L107.04-3.45Q111.29-3.45 113.27-5.85 115.24-8.25 115.24-13.2L115.24-13.2 115.24-14 106.34-14ZM122.94 0L133.84-34.3 139.49-34.3 150.39 0 145.64 0 143.29-7.65 129.69-7.65 127.34 0 122.94 0ZM130.89-11.65L142.04-11.65 137.39-26.9Q137.04-28 136.59-30.7L136.59-30.7 136.39-30.7Q135.94-27.95 135.59-26.9L135.59-26.9 130.89-11.65ZM174.29 0.6Q168.94 0.6 165.96-2.43 162.99-5.45 162.99-11.15L162.99-11.15 162.99-34.3 167.39-34.3 167.39-10.9Q167.39-7.3 169.21-5.38 171.04-3.45 174.29-3.45L174.29-3.45Q177.54-3.45 179.36-5.38 181.19-7.3 181.19-10.9L181.19-10.9 181.19-34.3 185.59-34.3 185.59-11.15Q185.59-5.45 182.61-2.43 179.64 0.6 174.29 0.6L174.29 0.6ZM192.58 0L192.58-34.3 204.83-34.3Q209.78-34.3 212.43-31.6 215.08-28.9 215.08-24.3L215.08-24.3Q215.08-19.7 212.31-16.93 209.53-14.15 204.83-14.15L204.83-14.15 196.98-14.15 196.98 0 192.58 0ZM196.98-18.15L204.68-18.15Q207.28-18.15 208.88-19.83 210.48-21.5 210.48-24.3L210.48-24.3Q210.48-27.1 208.98-28.7 207.48-30.3 204.68-30.3L204.68-30.3 196.98-30.3 196.98-18.15ZM219.93 0L219.93-34.3 230.58-34.3Q236.73-34.3 240.16-30.05 243.58-25.8 243.58-17.65L243.58-17.65Q243.58-8.95 240.18-4.48 236.78 0 230.58 0L230.58 0 219.93 0ZM224.33-4L230.18-4Q234.33-4 236.66-7.13 238.98-10.25 238.98-16.4L238.98-16.4 238.98-18.9Q238.98-24.5 236.66-27.4 234.33-30.3 230.18-30.3L230.18-30.3 224.33-30.3 224.33-4ZM245.98 0L256.88-34.3 262.53-34.3 273.43 0 268.68 0 266.33-7.65 252.73-7.65 250.38 0 245.98 0ZM253.93-11.65L265.08-11.65 260.43-26.9Q260.08-28 259.63-30.7L259.63-30.7 259.43-30.7Q258.98-27.95 258.63-26.9L258.63-26.9 253.93-11.65ZM280.68 0L280.68-30.3 271.32-30.3 271.32-34.3 294.43-34.3 294.43-30.3 285.07-30.3 285.07 0 280.68 0ZM298.92 0L298.92-34.3 320.07-34.3 320.07-30.3 303.32-30.3 303.32-19.55 317.87-19.55 317.87-15.55 303.32-15.55 303.32-4 320.37-4 320.37 0 298.92 0ZM326.27 0L326.27-34.3 340.07-34.3Q345.02-34.3 347.67-31.73 350.32-29.15 350.32-24.8L350.32-24.8Q350.32-21.6 348.72-19.25 347.12-16.9 344.22-15.95L344.22-15.95 351.12 0 346.22 0 339.87-15.15 330.67-15.15 330.67 0 326.27 0ZM330.67-19.15L339.92-19.15Q342.52-19.15 344.12-20.7 345.72-22.25 345.72-24.8L345.72-24.8Q345.72-27.4 344.22-28.85 342.72-30.3 339.92-30.3L339.92-30.3 330.67-30.3 330.67-19.15Z" opacity="1" transform="matrix(1,0,0,1,0,0)" fill="#ff0000" class="wordmark-text-0" data-fill-palette-color="primary" id="text-0"></path></svg></g></svg></g></svg></g></svg></g><g><svg viewBox="0 0 92.4762566020997 92.4762566020997" height="92.4762566020997" width="92.4762566020997"><g><svg></svg></g><g id="icon-0"><svg viewBox="0 0 92.4762566020997 92.4762566020997" height="92.4762566020997" width="92.4762566020997"><g><path d="M0 46.238c0-25.537 20.702-46.238 46.238-46.238 25.537 0 46.238 20.702 46.238 46.238 0 25.537-20.702 46.238-46.238 46.238-25.537 0-46.238-20.702-46.238-46.238zM46.238 88.838c23.527 0 42.6-19.073 42.6-42.6 0-23.527-19.073-42.6-42.6-42.6-23.527 0-42.6 19.073-42.6 42.6 0 23.527 19.073 42.6 42.6 42.6z" data-fill-palette-color="accent" fill="#ed2647" stroke="transparent"></path></g><g transform="matrix(1,0,0,1,24.76793763900905,24.757287742847325)"><svg viewBox="0 0 42.94038132408159 42.961681116405046" height="42.961681116405046" width="42.94038132408159"><g><svg xmlns:dc="http://purl.org/dc/elements/1.1/" xmlns:cc="http://creativecommons.org/ns#" xmlns:rdf="http://www.w3.org/1999/02/22-rdf-syntax-ns#" xmlns:svg="http://www.w3.org/2000/svg" xmlns="http://www.w3.org/2000/svg" xmlns:sodipodi="http://sodipodi.sourceforge.net/DTD/sodipodi-0.dtd" xmlns:inkscape="http://www.inkscape.org/namespaces/inkscape" preserveAspectRatio="xMidYMid" viewBox="0 0 63 63.03125" version="1.1" x="0" y="0" height="42.961681116405046" width="42.94038132408159" class="icon-s-0" data-fill-palette-color="accent" id="s-0"><path d="M9.5 0C4.253 0 0 4.25 0 9.5L0 53.531C0 58.781 4.253 63.031 9.5 63.031L53.5 63.031C58.747 63.031 63 58.781 63 53.531L63 9.5C63 4.25 58.747 0 53.5 0L9.5 0zM10 3L17 3 17 60.031 10 60.031 10 3zM20 3L35 3 35 60.031 20 60.031 20 3zM38 3L53.5 3C57.09 3 60 5.908 60 9.5L60 53.531C60 57.123 57.09 60.031 53.5 60.031L38 60.031 38 3zM6.969 3.5C6.978 3.496 6.991 3.504 7 3.5L7 59.531C4.653 58.55 3 56.236 3 53.531L3 9.5C3 6.806 4.636 4.487 6.969 3.5z" fill="#ed2647" fill-rule="evenodd" data-fill-palette-color="accent"></path></svg></g></svg></g></svg></g></svg></g></svg></g><defs></defs></svg><rect width="395.52" height="72.1362045186665" fill="none" stroke="none" visibility="hidden"></rect></g></svg></g></svg>